<?xml version="1.0" encoding="UTF-8" standalone="no"?>
<!-- Created with Inkscape (http://www.inkscape.org/) -->

<svg
   xmlns:dc="http://purl.org/dc/elements/1.1/"
   xmlns:cc="http://creativecommons.org/ns#"
   xmlns:rdf="http://www.w3.org/1999/02/22-rdf-syntax-ns#"
   xmlns:svg="http://www.w3.org/2000/svg"
   xmlns="http://www.w3.org/2000/svg"
   xmlns:sodipodi="http://sodipodi.sourceforge.net/DTD/sodipodi-0.dtd"
   xmlns:inkscape="http://www.inkscape.org/namespaces/inkscape"
   width="135"
   height="68"
   id="svg2"
   version="1.1"
   inkscape:version="0.48.1 "
   sodipodi:docname="国道 2 (17).svg">
  <defs
     id="defs4" />
  <sodipodi:namedview
     id="base"
     pagecolor="#ffffff"
     bordercolor="#666666"
     borderopacity="1.0"
     inkscape:pageopacity="0.0"
     inkscape:pageshadow="2"
     inkscape:zoom="3.9378078"
     inkscape:cx="67.057326"
     inkscape:cy="30.670506"
     inkscape:document-units="px"
     inkscape:current-layer="layer1"
     showgrid="false"
     inkscape:window-width="667"
     inkscape:window-height="700"
     inkscape:window-x="0"
     inkscape:window-y="0"
     inkscape:window-maximized="1" />
  <metadata
     id="metadata7">
    <rdf:RDF>
      <cc:Work
         rdf:about="">
        <dc:format>image/svg+xml</dc:format>
        <dc:type
           rdf:resource="http://purl.org/dc/dcmitype/StillImage" />
        <dc:title />
      </cc:Work>
    </rdf:RDF>
  </metadata>
  <g
     inkscape:label="Layer 1"
     inkscape:groupmode="layer"
     id="layer1"
     transform="translate(0,-984.36218)">
    <flowRoot
       xml:space="preserve"
       id="flowRoot3826"
       style="font-size:12px;font-style:normal;font-variant:normal;font-weight:normal;font-stretch:normal;text-align:start;line-height:0%;letter-spacing:0px;word-spacing:0px;writing-mode:lr-tb;text-anchor:start;fill:#000000;fill-opacity:1;stroke:none;font-family:STJTBZ;-inkscape-font-specification:STJTBZ"><flowRegion
         id="flowRegion3828"><rect
           id="rect3830"
           width="117.79703"
           height="45.610435"
           x="128.57115"
           y="693.58405" /></flowRegion><flowPara
         id="flowPara3832" /></flowRoot>    <flowRoot
       xml:space="preserve"
       id="flowRoot3834"
       style="font-size:12px;font-style:normal;font-variant:normal;font-weight:normal;font-stretch:normal;text-align:start;line-height:0%;letter-spacing:0px;word-spacing:0px;writing-mode:lr-tb;text-anchor:start;fill:#000000;fill-opacity:1;stroke:none;font-family:STJTBZ;-inkscape-font-specification:STJTBZ"><flowRegion
         id="flowRegion3836"><rect
           id="rect3838"
           width="117.43789"
           height="53.152317"
           x="129.64856"
           y="691.4292" /></flowRegion><flowPara
         id="flowPara3840" /></flowRoot>    <g
       id="g3794"
       transform="translate(-126.77995,371.7982)">
      <rect
         ry="10.164636"
         y="614.13867"
         x="128.27841"
         height="64.926842"
         width="132.00308"
         id="rect2996"
         style="fill:#ffffff;fill-opacity:1;fill-rule:nonzero;stroke:#ff0000;stroke-width:2.99692297;stroke-miterlimit:4;stroke-opacity:1;stroke-dasharray:none;stroke-dashoffset:0" />
      <path
         d="m 138.4375,620.1875 c -2.35623,0 -4.09375,1.74631 -4.09375,4.125 l 0,44.59375 c 0,2.37869 1.71506,4.09375 4.09375,4.09375 l 111.6875,0 c 2.37869,0 4.09375,-1.71506 4.09375,-4.09375 l 0,-44.59375 c 0,-2.37869 -1.73752,-4.125 -4.09375,-4.125 l -111.6875,0 z"
         id="path3776"
         style="fill:#ff0000;fill-opacity:1;fill-rule:nonzero;stroke:#ff0000;stroke-width:2.99692297;stroke-miterlimit:4;stroke-opacity:1;stroke-dasharray:none;stroke-dashoffset:0"
         inkscape:original="M 138.4375 614.125 C 132.80629 614.125 128.28125 618.68129 128.28125 624.3125 L 128.28125 668.90625 C 128.28125 674.53746 132.80629 679.0625 138.4375 679.0625 L 250.125 679.0625 C 255.75621 679.0625 260.28125 674.53746 260.28125 668.90625 L 260.28125 624.3125 C 260.28125 618.68129 255.75621 614.125 250.125 614.125 L 138.4375 614.125 z "
         inkscape:radius="-6.0714288"
         sodipodi:type="inkscape:offset" />
    </g>
    <g
       transform="scale(0.89442718,1.118034)"
       style="font-size:50.08792114px;font-style:normal;font-variant:normal;font-weight:normal;font-stretch:normal;text-align:start;line-height:0%;letter-spacing:0px;word-spacing:0px;writing-mode:lr-tb;text-anchor:start;fill:#ffffff;fill-opacity:1;stroke:none;font-family:STJTBZ;-inkscape-font-specification:STJTBZ"
       id="text3798">
      <path
         inkscape:connector-curvature="0"
         d="m 44.582132,911.06466 c -0.467767,10.21793 -4.4247,15.32689 -11.870813,15.32689 -3.506533,0 -6.386596,-1.36908 -8.640197,-4.10724 -2.253614,-2.73816 -3.380418,-6.37817 -3.380415,-10.92005 -3e-6,-4.90768 1.143615,-8.72246 3.430858,-11.44434 2.287229,-2.72183 5.234039,-4.08276 8.840438,-4.08279 2.270407,3e-5 4.323773,0.63463 6.160105,1.90382 1.83629,1.26924 3.288932,3.10581 4.357931,5.5097 l -5.508938,2.05439 c -0.935499,-2.33766 -2.655639,-3.5065 -5.160425,-3.50652 -4.07312,2e-5 -6.109672,3.12211 -6.109663,9.36626 -9e-6,6.24419 2.086986,9.36627 6.26099,9.36627 2.337663,0 4.007361,-1.15202 5.009098,-3.45608 l -3.506521,0 0,-6.01031 z"
         style="fill:#ffffff"
         id="path3008" />
    </g>
    <g
       transform="matrix(0.89442718,0,0,1.118034,-0.63492391,0)"
       style="font-size:50.08792114px;font-style:normal;font-variant:normal;font-weight:normal;font-stretch:normal;text-align:start;line-height:0%;letter-spacing:0px;word-spacing:0px;writing-mode:lr-tb;text-anchor:start;fill:#ffffff;fill-opacity:1;stroke:none;font-family:STJTBZ;-inkscape-font-specification:STJTBZ"
       id="text3802" />
    <g
       id="text3806-9"
       style="font-size:50.08792114px;font-style:normal;font-variant:normal;font-weight:normal;font-stretch:normal;text-align:start;line-height:0%;letter-spacing:0px;word-spacing:0px;writing-mode:lr-tb;text-anchor:start;fill:#ffffff;fill-opacity:1;stroke:none;font-family:STJTBZ;-inkscape-font-specification:STJTBZ"
       transform="matrix(0.89442718,0,0,1.118034,-308.38938,343.86467)">
      <path
         inkscape:connector-curvature="0"
         id="path3014"
         style="fill:#ffffff"
         d="m 417.27146,618.42798 -23.99231,0 c 0.26699,-3.57276 1.04324,-6.51116 2.32877,-8.81522 1.28551,-2.30404 2.83827,-4.14901 4.65829,-5.53492 1.82,-1.38588 4.14901,-2.54606 6.98706,-3.48054 1.16882,-0.33423 2.08723,-0.84375 2.75523,-1.52856 0.66796,-0.68478 1.00195,-1.4111 1.00197,-2.17897 -2e-5,-0.76782 -0.54266,-1.45236 -1.62792,-2.05362 -1.08529,-0.60121 -2.42941,-0.90183 -4.03234,-0.90185 -2.93893,2e-5 -5.57672,1.01856 -7.91337,3.0556 l -4.15769,-4.35793 c 1.9698,-1.53567 3.90649,-2.67904 5.81007,-3.4301 1.90356,-0.751 4.07411,-1.12652 6.51167,-1.12655 3.67261,3e-5 6.47726,0.80966 8.41397,2.42889 1.93666,1.61928 2.90501,3.69787 2.90503,6.23577 -2e-5,2.53794 -0.80965,4.60837 -2.42888,6.21131 -1.61928,1.60296 -4.43234,3.08872 -8.43919,4.45728 -2.00345,0.73474 -3.82346,2.40444 -5.46003,5.0091 l 16.67967,0 z" />
    </g>
    <path
       inkscape:connector-curvature="0"
       d="m 83.982038,1035.4562 -5.377148,0 0,-23.0713 -2.68789,0 0,-6.9453 c 1.523042,-0.597 2.523822,-1.9032 3.002343,-3.9187 l 5.062695,0 z"
       style="font-size:50.08792114px;font-style:normal;font-variant:normal;font-weight:normal;font-stretch:normal;text-align:start;line-height:0%;letter-spacing:0px;word-spacing:0px;writing-mode:lr-tb;text-anchor:start;fill:#ffffff;fill-opacity:1;stroke:none;font-family:STJTBZ;-inkscape-font-specification:STJTBZ"
       id="path3017" />
    <path
       inkscape:connector-curvature="0"
       d="m 115.07246,1008.2965 c -1.55315,1.4185 -3.37515,4.7037 -5.46602,9.8557 -2.0909,5.152 -3.13634,10.864 -3.13632,17.136 l -5.41953,0 c -1e-5,-4.6667 0.50767,-9.1841 1.52304,-13.5523 1.01535,-4.3681 2.80728,-8.9225 5.37578,-13.6633 l -14.64941,0 0,-6.7197 21.77246,0 z"
       style="font-size:50.08792114px;font-style:normal;font-variant:normal;font-weight:normal;font-stretch:normal;text-align:start;line-height:0%;letter-spacing:0px;word-spacing:0px;writing-mode:lr-tb;text-anchor:start;fill:#ffffff;fill-opacity:1;stroke:none;font-family:STJTBZ;-inkscape-font-specification:STJTBZ"
       id="path3022" />
  </g>
</svg>
